<?xml version="1.0" encoding="utf-8"?>
<!-- Generator: Adobe Illustrator 25.2.1, SVG Export Plug-In . SVG Version: 6.00 Build 0)  -->
<svg version="1.1" id="Слой_1" xmlns="http://www.w3.org/2000/svg" xmlns:xlink="http://www.w3.org/1999/xlink" x="0px" y="0px"
	 viewBox="0 0 548.3 768.5" enable-background="new 0 0 548.3 768.5" xml:space="preserve">
<g>
	<path fill="#C60000" d="M468.9,1.5c4.8,0.9,9.7,1.7,14.5,2.6c0.1,0.4,0.2,0.9,0.3,1.3c-7.8,1.5-15.6,3-23.4,4.7
		c-36.9,8-71.9,20.2-102.4,43.4c-18.8,14.3-31.9,32.7-42.1,53.7c-3,6.3-6.2,12.5-9.1,18.8c-3.5,7.5-2.8,7.6,5,9.6
		c6.8,1.7,14.4,3.9,19.4,8.4c4.8,4.2,6.7,11.7,9.9,17.7c1.3,2.5,2.1,5.9,4.2,7.4c26.5,19.6,38.9,47.4,45.2,78.5
		c6.6,32.5,7.6,65.3,3.2,98.1c-2.7,19.7-6.8,39.2-10.8,58.6c-0.9,4.3-4.4,8.1-6.7,12.1c-3.1-2.9-6.7-5.4-9.3-8.8
		c-15.9-21-37.6-32.4-62.9-37.1c-37.5-6.9-72,0-101.9,24.5c-7,5.8-12.4,13.6-18.7,20.3c-1.9,2-4.8,5-6.7,4.6
		c-2.1-0.4-4.7-3.9-5.3-6.4c-4.8-20.6-10.9-41-13.1-61.9c-2.5-23.4-2.8-47.3-1.7-70.8c1.4-31.7,8-62.4,27.3-88.7
		c6-8.1,14.2-14.6,21.1-22c2.1-2.2,4.5-4.8,5.1-7.6c3.5-16.6,12.5-25.1,29.3-27c8.1-0.9,8.8-1.9,5.3-9.3
		c-11.7-25.2-23.7-50.1-46.2-68c-21.3-17-45.2-29.3-71.1-37.4C107,14.2,86.2,9.3,66.6,4c4.2-0.7,10-1.6,15.7-2.5c2,0,4,0,6,0
		c11.8,1.1,23.7,1.9,35.5,3.5c36.8,4.9,69.6,18.4,97,44.1c24.2,22.8,39.5,51,49.7,82.3c1.1,3.4,2.7,6.6,4,9.9c0.8,0,1.6,0,2.3,0
		c1.7-4.5,3.6-8.9,5.1-13.4c9.1-27.6,22.7-52.7,43.1-73.5c33.5-34.2,75.2-49.2,122.4-51.1c4.7-0.2,9.3-1.2,14-1.8
		C463.9,1.5,466.4,1.5,468.9,1.5z"/>
	<path fill="#C60000" d="M277.1,768.5c-3.9-10.9-8.3-21.7-11.5-32.8c-3.9-13.4-5.1-14.7-18-10.4c-18.2,6.1-36.2,12.8-54.2,19.2
		c-2.8,1-5.5,2.4-8.4,3c-2.2,0.5-4.7-0.1-7-0.1c0.6-2.3,0.5-5,1.8-6.7c10.7-14.4,21.7-28.6,32.7-42.8c15.7-20.3,31.4-40.7,47.2-61
		c9.9-12.7,21.9-12.8,31.7-0.2c25.6,32.9,51.1,65.8,76.5,98.9c2.5,3.3,3.7,7.7,5.5,11.6c-4.4-0.6-9-0.5-13.1-2
		c-18.1-6.4-35.9-13.5-54-19.9c-9.6-3.4-12.2-1.5-14.5,8.5c-1.6,7-2.5,14.3-4.9,21.1c-1.8,4.9-5.5,9.1-8.3,13.7
		C278.1,768.5,277.6,768.5,277.1,768.5z"/>
	<path fill="#C60000" d="M3.5,189.9c1-38.3,9.3-78.4,30-115.3c3.5-6.2,8.2-11.9,12.8-17.4c1.6-1.9,4.9-2.4,7.4-3.5
		c0.8,3,2.5,6,2.3,8.9c-0.4,6.4-1.7,12.8-2.7,19.2c-6,37.9,1.6,73.1,22.8,104.8c18.6,27.8,34.6,56.5,42,89.4
		c2.7,12.1,5.3,24.3,7,36.6c2.3,16.1-5.7,24.8-22.3,25.7C68.9,339.9,41.3,323,26,291.6C10.8,260.7,3.7,227.9,3.5,189.9z"/>
	<path fill="#C60000" d="M547.9,192.2C547.3,231,540,266.7,521,299c-16.3,27.7-40.9,41.4-73.6,39.1c-15.7-1.1-23.4-9.6-21.3-25.1
		c5.3-39.6,16.3-77.2,39-110.9c9.7-14.4,17.8-30,25-45.8c11.7-25.8,11.2-53.2,6.9-80.7c-0.7-4.7-1.9-9.3-2-14c0-2.6,1.7-5.3,2.6-8
		c2.3,1.1,5.2,1.6,6.9,3.3c12.3,12.2,19.2,27.8,25.4,43.6C542,130.4,547.2,161.7,547.9,192.2z"/>
	<path fill="#C60000" d="M363.6,542.9c-18.7-37-48.2-53.9-88.5-53.7c-40.2,0.3-68.9,18.1-86.4,54.3c-15.8-14.8-22-70.3,8.3-107.1
		c37-44.9,102.4-50.2,146.5-11.2C383.3,460.3,381.6,518.6,363.6,542.9z"/>
	<path fill="#C60000" d="M196.5,600.3c0.9-32.6,16-56.9,45.2-70.8c29.5-14,58.3-10.7,83.9,10.3c32.4,26.4,38.8,70.9,15.6,104.6
		c-4.5,6.6-5.8,6.7-10.8,0.2c-8.3-10.6-16.3-21.4-24.8-31.9c-19.4-24.2-42-24.1-61.5,0.2c-7.6,9.5-15,19.3-22.5,28.9
		c-6.2,8-8.5,7.8-13.9-1C200.3,628.7,196.7,615.7,196.5,600.3z"/>
	<path fill="#C60000" d="M124.8,244.1c-2.4-5.9-4.1-10.5-6-14.9c-3.7-8.5-6.4-17.5-11.4-25.1c-5.6-8.5-7-17-6.8-26.8
		c0.2-8.6-0.4-17.6-2.9-25.7c-1.9-6.2-6.9-11.8-11.3-17c-4.2-5-4.4-8.1,1.6-10.8c8.8-3.9,18-3.4,25.6,2.2c6,4.5,12.2,10.1,15.5,16.7
		c15.7,31.4,15,63.3,0.1,94.9C128.5,239.5,127,241.1,124.8,244.1z"/>
	<path fill="#C60000" d="M426.2,243.8c-7.3-10.4-10.5-21-12.9-31.9c-5.1-23.1-3-45.7,7.4-67c6.9-14.3,17.5-24.4,35-23.1
		c2.7,0.2,5.5,0.9,7.8,2.1c5.5,2.9,6.1,6.5,1.3,10.3c-11.2,8.7-14.7,20.7-14.2,33.8c0.7,15.3-1.6,29.2-10,42.6
		C434.6,220.3,431.3,231.7,426.2,243.8z"/>
</g>
</svg>
