<?xml version="1.0" encoding="utf-8"?>
<!-- Generator: Adobe Illustrator 25.2.1, SVG Export Plug-In . SVG Version: 6.00 Build 0)  -->
<svg version="1.1" id="Слой_1" xmlns="http://www.w3.org/2000/svg" xmlns:xlink="http://www.w3.org/1999/xlink" x="0px" y="0px"
	 viewBox="0 0 600.2 580.9" enable-background="new 0 0 600.2 580.9" xml:space="preserve">
<g>
	<path fill="#FFFFFF" d="M600.2,580.9c-200.1,0-400.2,0-600.2,0C0,387.2,0,193.6,0,0c200.1,0,400.2,0,600.2,0
		C600.2,193.7,600.2,387.3,600.2,580.9z M201.3,400.5c0.7-0.4,1.3-0.8,2-1.2c0-2,0.2-4,0-6c-1.1-9.3-2.3-18.6-3.3-28
		c-0.2-2.3,0.5-4.8,0.7-7.2c2.5,0.4,5.2,0.4,7.6,1.2c3.4,1.2,6.7,3,9.9,4.7c46.9,24.2,95.9,42.3,148.5,48.9c6.5,0.8,9.8,4,11.9,9.5
		c10.1,26.5,19.2,53.5,30.6,79.4c10.7,24.2,23.9,47.4,36.2,70.8c1.4,2.8,4.4,4.7,7.6,8.1c1.6-4.2,3-6.6,3.4-9.1
		c1.2-8.4,2.2-16.8,3.1-25.2c1.5-14.8,2.2-29.7,4.3-44.4c3.2-21.5,17.9-36.1,38.7-40.3c20-4,40.1-7.3,59.8-12.1
		c11-2.6,21.6-7.1,31.9-11.8c6-2.7,6.1-8.4,0.6-11.9c-5.4-3.3-11.2-6.2-17.2-8.1c-8.9-2.8-18.3-4.2-27.3-6.8
		c-32.3-9.2-64.4-19.4-97-27.6c-17.5-4.4-25.5-13.2-28.9-31.2c-9.9-52.7-22.1-104.9-46.8-153.2c-0.8-1.5-0.4-3.7-0.7-6.5
		c13.2,2.2,25.2,4.1,37.2,6.1c0.5-0.5,1-0.9,1.5-1.4c-7.6-12.4-14.7-25.1-23-37c-17.8-25.6-39.6-46.6-68.7-59.5
		c-11.8-5.2-24.2-10.9-33.8-19.2C247,44.6,198.3,19.4,142.3,8.7C109.9,2.5,77.5,1,45,8.5C15.6,15.3-2.2,36.1,1.8,65.7
		c2.3,16.9,7.3,33.4,11.4,50c3.1,12.7,11.7,21,23.2,26.4c12,5.7,24.1,11.2,36.1,17c1.8,0.9,3.1,2.9,4.6,4.3
		c-1.7,1.4-3.1,3.3-5.1,4.2c-1.8,0.8-4.1,0.8-6.1,0.6c-8.4-1-16.8-2.2-25.2-3.4c-7.6-1.1-9.3,0.6-5.9,7.5
		c8.8,17.8,16.8,36.3,27.6,52.9c12.3,19.1,24.2,37.8,32,59.5c9.7,27.1,24.3,52.1,46.2,71.4c13,11.5,27.6,21.1,41.6,31.4
		C188.5,392.1,195,396.2,201.3,400.5z"/>
	<path d="M201.3,400.5c-6.3-4.3-12.8-8.4-19-12.9c-14-10.3-28.7-19.9-41.6-31.4c-21.9-19.4-36.5-44.3-46.2-71.4
		c-7.8-21.7-19.6-40.4-32-59.5c-10.8-16.6-18.8-35-27.6-52.9c-3.4-6.9-1.7-8.6,5.9-7.5c8.4,1.2,16.8,2.4,25.2,3.4
		c2,0.2,4.3,0.2,6.1-0.6c1.9-0.9,3.4-2.7,5.1-4.2c-1.5-1.5-2.8-3.5-4.6-4.3c-12-5.8-24.1-11.3-36.1-17
		c-11.5-5.4-20.1-13.7-23.2-26.4c-4.1-16.6-9.1-33.1-11.4-50C-2.2,36.1,15.6,15.3,45,8.5c32.5-7.5,64.9-6,97.3,0.1
		c56,10.7,104.8,35.9,147.9,73.1c9.7,8.3,22,13.9,33.8,19.2c29.1,12.9,50.9,34,68.7,59.5c8.3,11.9,15.4,24.7,23,37
		c-0.5,0.5-1,0.9-1.5,1.4c-12-2-24.1-4-37.2-6.1c0.2,2.8-0.1,4.9,0.7,6.5c24.7,48.3,36.9,100.5,46.8,153.2
		c3.4,18,11.4,26.8,28.9,31.2c32.6,8.2,64.6,18.4,97,27.6c9,2.6,18.3,4,27.3,6.8c6,1.9,11.9,4.7,17.2,8.1c5.5,3.4,5.4,9.1-0.6,11.9
		c-10.3,4.7-21,9.1-31.9,11.8c-19.8,4.8-39.9,8.1-59.8,12.1c-20.9,4.1-35.5,18.8-38.7,40.3c-2.2,14.7-2.9,29.6-4.3,44.4
		c-0.8,8.4-1.8,16.8-3.1,25.2c-0.4,2.6-1.8,5-3.4,9.1c-3.2-3.3-6.1-5.3-7.6-8.1c-12.3-23.5-25.5-46.6-36.2-70.8
		c-11.5-25.9-20.6-52.9-30.6-79.4c-2.1-5.6-5.3-8.7-11.9-9.5c-52.7-6.6-101.6-24.6-148.5-48.9c-3.3-1.7-6.5-3.5-9.9-4.7
		c-2.4-0.9-5-0.8-7.6-1.2c-0.3,2.4-1,4.8-0.7,7.2c0.9,9.3,2.2,18.6,3.3,28c0.2,2,0,4,0,6C202.6,399.7,202,400.1,201.3,400.5z
		 M101.5,214.6c35.1,3.3,69.2,0.4,98.8-20.7c35.5-25.3,45.2-71.7,41-111c-12.9,32.8-25,64-51.6,86.2
		C163.7,190.7,133.6,204.5,101.5,214.6z M134,49.9c-11.8-0.2-20.1,7.7-20.3,19.3c-0.2,10.7,7.2,19,17,19.3
		c11.9,0.3,21-8.5,20.9-20.4C151.7,58.4,143.6,50,134,49.9z"/>
	<path fill="#FFFFFF" d="M101.5,214.6c32.2-10.2,62.2-24,88.2-45.6c26.6-22.2,38.8-53.3,51.6-86.2c4.2,39.3-5.5,85.7-41,111
		C170.6,215.1,136.6,217.9,101.5,214.6z"/>
	<path fill="#FFFFFF" d="M134,49.9c9.5,0.1,17.7,8.5,17.7,18.2c0,11.9-9,20.7-20.9,20.4c-9.9-0.3-17.2-8.6-17-19.3
		C113.9,57.6,122.2,49.7,134,49.9z"/>
</g>
</svg>
