<?xml version="1.0" encoding="utf-8"?>
<!-- Generator: Adobe Illustrator 25.2.1, SVG Export Plug-In . SVG Version: 6.00 Build 0)  -->
<svg version="1.1" id="Слой_1" xmlns="http://www.w3.org/2000/svg" xmlns:xlink="http://www.w3.org/1999/xlink" x="0px" y="0px"
	 viewBox="0 0 597.6 577.5" enable-background="new 0 0 597.6 577.5" xml:space="preserve">
<g>
	<path d="M200,397.1c-6.3-4.3-12.8-8.4-19-12.9c-14-10.3-28.7-19.9-41.6-31.4c-21.9-19.4-36.5-44.3-46.2-71.4
		c-7.8-21.7-19.6-40.4-32-59.5c-10.8-16.6-18.8-35-27.6-52.9c-3.4-6.9-1.7-8.6,5.9-7.5c8.4,1.2,16.8,2.4,25.2,3.4
		c2,0.2,4.3,0.2,6.1-0.6c1.9-0.9,3.4-2.7,5.1-4.2c-1.5-1.5-2.8-3.5-4.6-4.3c-12-5.8-24.1-11.3-36.1-17
		c-11.5-5.4-20.1-13.7-23.2-26.4c-4.1-16.6-9.1-33.1-11.4-50C-3.5,32.7,14.3,11.9,43.7,5.1c32.5-7.5,64.9-6,97.3,0.1
		c56,10.7,104.8,35.9,147.9,73.1c9.7,8.3,22,13.9,33.8,19.2c29.1,12.9,50.9,34,68.7,59.5c8.3,11.9,15.4,24.7,23,37
		c-0.5,0.5-1,0.9-1.5,1.4c-12-2-24.1-4-37.2-6.1c0.2,2.8-0.1,4.9,0.7,6.5c24.7,48.3,36.9,100.5,46.8,153.2
		c3.4,18,11.4,26.8,28.9,31.2c32.6,8.2,64.6,18.4,97,27.6c9,2.6,18.3,4,27.3,6.8c6,1.9,11.9,4.7,17.2,8.1c5.5,3.4,5.4,9.1-0.6,11.9
		c-10.3,4.7-21,9.1-31.9,11.8c-19.8,4.8-39.9,8.1-59.8,12.1c-20.9,4.1-35.5,18.8-38.7,40.3c-2.2,14.7-2.9,29.6-4.3,44.4
		c-0.8,8.4-1.8,16.8-3.1,25.2c-0.4,2.6-1.8,5-3.4,9.1c-3.2-3.3-6.1-5.3-7.6-8.1c-12.3-23.5-25.5-46.6-36.2-70.8
		c-11.5-25.9-20.6-52.9-30.6-79.4c-2.1-5.6-5.3-8.7-11.9-9.5c-52.7-6.6-101.6-24.6-148.5-48.9c-3.3-1.7-6.5-3.5-9.9-4.7
		c-2.4-0.9-5-0.8-7.6-1.2c-0.3,2.4-1,4.8-0.7,7.2c0.9,9.3,2.2,18.6,3.3,28c0.2,2,0,4,0,6C201.3,396.3,200.7,396.7,200,397.1z
		 M100.2,211.2c35.1,3.3,69.2,0.4,98.8-20.7c35.5-25.3,45.2-71.7,41-111c-12.9,32.8-25,64-51.6,86.2
		C162.4,187.3,132.3,201.1,100.2,211.2z M132.7,46.5c-11.8-0.2-20.1,7.7-20.3,19.3c-0.2,10.7,7.2,19,17,19.3
		c11.9,0.3,21-8.5,20.9-20.4C150.4,55,142.3,46.6,132.7,46.5z"/>
</g>
</svg>
