<?xml version="1.0" encoding="utf-8"?>
<!-- Generator: Adobe Illustrator 25.2.1, SVG Export Plug-In . SVG Version: 6.00 Build 0)  -->
<svg version="1.1" id="Слой_1" xmlns="http://www.w3.org/2000/svg" xmlns:xlink="http://www.w3.org/1999/xlink" x="0px" y="0px"
	 viewBox="0 0 785.7 785.7" enable-background="new 0 0 785.7 785.7" xml:space="preserve">
<g>
	<path fill="#C60000" d="M441.9,0c0.8,0.5,1.6,1.2,2.5,1.6c11,4,17.9,13.3,16.9,22.8c-1.2,11.7-10.2,20.1-22.6,21.2
		c-2.5,0.2-5.1,0.1-7.7,0.1c-112.8,0-225.6,0.3-338.3-0.2c-19.5-0.1-43.6,14-46.8,40c-3.2,25.4,12.4,47.1,36.8,52.4
		c3.4,0.7,7.1,0.6,10.7,0.6c106.4,0,212.8-0.1,319.2,0.1c64.9,0.1,119.4,40.5,137.1,101.2c22,75.5-28.9,158.8-106.7,171
		C334,427.8,227.8,383.4,171,282.1c-2.6-4.7-5.4-6.4-10.7-6.4c-29.2,0.2-58.3,0.2-87.5,0.1c-12.2,0-21.1-5.5-24.6-14.8
		c-5.7-15.2,5.4-30.3,22.9-30.5c23-0.3,46-0.1,69-0.1c2.8,0,5.5,0,8.2,0c-2.5-15.1-4.6-29.4-7.3-43.6c-0.3-1.4-3.7-2.9-5.8-3
		c-13.5-0.3-27.1-0.1-40.7-0.2c-45.8-0.3-81.8-29.1-92.1-73.7c-0.9-3.9-1.7-7.9-2.5-11.9c0-4.1,0-8.2,0-12.3
		c0.5-1.7,1.4-3.3,1.6-5.1C7,41.6,33.4,12.4,71.9,3.2c4.7-1.1,9.4-2.1,14-3.2C204.6,0,323.3,0,441.9,0z M347.2,229.8
		c-13.4-0.1-23.6,9.5-23.8,22.5c-0.2,13.8,9.5,24.1,22.9,24.2c13.7,0.1,23.8-9.7,23.8-23.3C370.2,239.9,360.4,230,347.2,229.8z"/>
	<path fill="#C60000" d="M205.6,785.7c-19.2-9.4-22.6-18.2-17.5-43.4c5.7-28,18.9-51.5,41.1-69.7c1.2-1,2.8-1.4,5.1-2.5
		c-3.9-3.4-6-5.2-8.1-7c-25.4-22.2-38.4-50.4-40.1-83.9c-0.6-12.7,7.5-23.9,20.4-24.3c28-0.9,56.4-4.1,83.5,5.6
		c45.5,16.2,72,48.5,78,96.7c7.3,59-34.7,115.6-94.6,126.3c-4.2,0.8-8.5,1.5-12.7,2.2C242.5,785.7,224,785.7,205.6,785.7z"/>
	<path fill="#C60000" d="M785.7,425.1c-1.1,11.7-2,23.3-3.4,34.9c-9,76.7-41.2,139.2-110.3,179c-5.1,3-9.8,3.9-15.9,2.5
		c-57.8-13.3-99.9-46.6-127.4-99c-2.8-5.3-1.6-8.1,2.6-12.2c7.4-7.2,14-15.4,20-23.8c2.5-3.4,4-4.5,8.3-3.7
		c53,9.5,103.5,2.9,151-23.4c26.4-14.7,48.8-34.4,68.8-56.9c2-2.3,4.1-4.5,6.2-6.7C785.7,418.9,785.7,422,785.7,425.1z"/>
	<path fill="#C60000" d="M528.8,423.7c83.5-58.9,104.5-196.8,15.7-282.9c11,2,20.2,3.1,29,5.5c98.7,26.9,165.5,88.1,198.6,185.3
		c1.4,4,1,9.7-0.7,13.6c-28.2,64.2-77,102.2-146.2,112.9c-23.1,3.6-46.3,1.7-69-4.3c-2.5-0.7-5.2-2.2-6.8-4.1
		C542.4,441.4,535.9,432.7,528.8,423.7z"/>
	<path fill="#C60000" d="M485.9,562c24,47.2,58.3,83.7,108.2,107.2c-60.1,15.3-119.2,20.2-179.1,21.2c0-14.8,1.1-28.6-0.3-42.2
		c-1.4-13.3-5.5-26.2-8.6-40.1C432,593.1,458.7,577.7,485.9,562z"/>
</g>
</svg>
