<?xml version="1.0" encoding="utf-8"?>
<!-- Generator: Adobe Illustrator 25.2.1, SVG Export Plug-In . SVG Version: 6.00 Build 0)  -->
<svg version="1.1" id="Слой_1" xmlns="http://www.w3.org/2000/svg" xmlns:xlink="http://www.w3.org/1999/xlink" x="0px" y="0px"
	 viewBox="0 0 512 512" enable-background="new 0 0 512 512" xml:space="preserve">
<g>
	<path d="M102,0c8.8,2.4,18,3.8,26.2,7.5c7.6,3.4,15,8.4,20.9,14.2c19.2,18.9,36.6,39.3,47.1,64.6c13.3,32.1,8.6,61.7-13.9,88
		c-9.4,11-20,21-30.2,31.3c-2.3,2.3-2.6,4-0.9,6.8c31.2,51.9,71.9,94.9,120.8,130.3c8.8,6.3,18.2,11.7,27.1,17.8
		c3.2,2.2,5.1,1.5,7.6-1c9.4-9.4,18.8-18.9,28.6-27.9c14.8-13.5,32-22,52.4-23c15.9-0.8,30.7,3.2,44.7,10.2
		c23.4,11.7,43.1,28.3,60.8,47.3c10.2,11,15.7,24.6,17.6,39.5c0.2,1.5,0.7,2.9,1,4.4c0,4,0,8,0,12c-0.4,1.4-0.9,2.8-1.1,4.2
		c-2.4,15.9-8.9,30-20.3,41.3c-23.4,23.2-52.1,36.3-84.4,41.4c-8.3,1.3-16.8,2-25.2,3c-5.7,0-11.3,0-17,0
		c-10.4-1.3-20.8-2.4-31.2-4.1c-25.8-4.2-50.4-12.4-74.3-22.7c-10.6-4.6-14.9-15.5-10.7-25.7c4.1-10,14.8-14.4,25.7-10.7
		c18,6,35.7,12.9,54,17.6c27.1,7,54.6,8.2,82.1,1.7c19.8-4.7,37.6-13.5,52.3-27.7c12.2-11.8,14.4-33.1,3.2-46.1
		c-15.7-18.3-34.1-33.8-56.9-43c-16.4-6.6-31.6-3.9-44.5,8.1C350.2,372,337.2,385.1,324,398c-10.1,9.9-17,11.1-29.6,4.7
		c-30.4-15.4-57.6-35.4-82.9-57.9c-35.6-31.8-67-67.3-91.7-108.3c-4-6.7-7.8-13.6-11.3-20.6c-5.2-10.2-4-18.2,4.1-26.4
		c11.2-11.4,22.6-22.7,33.8-34.1c7.1-7.3,13.8-15,16.5-25.2c3-10.9,0.7-21.2-3.9-31c-9.5-20-23.5-36.8-39.8-51.4
		c-13.8-12.4-36.3-10.1-48.8,3.6c-17.8,19.5-26.7,42.7-29.4,68.5c-4.5,42.5,5.6,82.4,22.7,120.8c26.9,60.4,67.5,110.2,118.6,151.8
		c3.6,2.9,7.3,5.8,10.8,8.9c9,7.9,10.3,19.4,3.3,28c-7,8.6-18.9,10.1-28.1,2.5c-15.9-13.2-32-26.3-46.7-40.7
		C81.3,351.4,49,306,26.4,254C12.4,221.7,3,188.2,0.9,152.9c-0.1-1.6-0.6-3.3-0.9-4.9c0-5.7,0-11.3,0-17c0.3-2,0.8-3.9,0.9-5.9
		c2-33.3,11.7-63.8,32-90.7C45.7,17.5,61.5,5.5,82.8,1.6c2.4-0.4,4.8-1,7.2-1.6C94,0,98,0,102,0z"/>
	<path d="M512,247c-2.4,7-6,13-13.5,15.6c-13.2,4.5-26.1-4.9-26.2-19.5c-0.2-17.8,0-35.7-0.1-53.5c-0.2-33.9-22.3-61.5-55.4-69.1
		c-4.2-1-8.6-1.5-12.9-1.5c-23-0.2-46-0.1-69-0.1c-1,0-1.9,0.1-3.9,0.3c1.7,1.8,2.8,3.1,4,4.3c13.8,13.7,27.7,27.5,41.5,41.2
		c5.7,5.6,8.6,12.1,6.5,20.3c-3.6,13.6-19.4,19.2-30.7,10.8c-1.6-1.2-3.1-2.6-4.5-4c-16.1-15.9-32.2-31.9-48.3-47.9
		c-25.8-25.8-25.9-61.8-0.1-87.6c15-15,30.1-29.8,45-44.8C349.3,6.6,354.2,2,361,0c2,0,4,0,6,0c0.9,0.4,1.8,0.9,2.7,1.2
		c14.9,5.2,18.8,21.8,7.6,33.3c-13.3,13.6-26.9,26.8-40.4,40.1c-1.2,1.2-2.2,2.5-4.1,4.5c3.2,0,5,0,6.8,0c20.3,0,40.6-0.1,61,0
		c52.4,0.4,95.1,33.6,107.9,84.2c1.7,6.7,2.4,13.7,3.5,20.6C512,205,512,226,512,247z"/>
</g>
</svg>
