<?xml version="1.0" encoding="utf-8"?>
<!-- Generator: Adobe Illustrator 25.2.1, SVG Export Plug-In . SVG Version: 6.00 Build 0)  -->
<svg version="1.1" id="Слой_1" xmlns="http://www.w3.org/2000/svg" xmlns:xlink="http://www.w3.org/1999/xlink" x="0px" y="0px"
	 viewBox="0 0 26 26" style="enable-background:new 0 0 26 26;" xml:space="preserve">
<style type="text/css">
	.st0{fill:none;stroke:#000000;stroke-width:1.5;stroke-miterlimit:10;}
	.st1{fill:none;stroke:#000000;stroke-width:1.5;stroke-linecap:round;stroke-linejoin:round;}
</style>
<path class="st0" d="M14.4,25h4.2c3.6,0,6.5-2.9,6.5-6.5V7.5C25,3.9,22.1,1,18.5,1h0H7.5C3.9,1,1,3.9,1,7.5v11.1
	C1,22.1,3.9,25,7.5,25h3.1"/>
<path class="st1" d="M14.5,25v-8h3l1-4h-4v-3c0-0.3,0.1-0.5,0.3-0.7C15,9.1,15.2,9,15.5,9h3V5h-3c-1.3,0-2.6,0.5-3.5,1.5
	C11,7.4,10.5,8.7,10.5,10v3h-3v4h3v8"/>
</svg>
