<?xml version="1.0" encoding="utf-8"?>
<!-- Generator: Adobe Illustrator 25.2.1, SVG Export Plug-In . SVG Version: 6.00 Build 0)  -->
<svg version="1.1" id="Слой_1" xmlns="http://www.w3.org/2000/svg" xmlns:xlink="http://www.w3.org/1999/xlink" x="0px" y="0px"
	 viewBox="0 0 26 26" style="enable-background:new 0 0 26 26;" xml:space="preserve">
<style type="text/css">
	.st0{fill:none;stroke:#000000;stroke-width:1.5;stroke-miterlimit:10;}
	.st1{fill:none;stroke:#000000;stroke-miterlimit:10;}
</style>
<path class="st0" d="M18.5,1H7.5C3.9,1,1,3.9,1,7.5v11.1C1,22.1,3.9,25,7.5,25h11.1c3.6,0,6.5-2.9,6.5-6.5V7.5C25,3.9,22.1,1,18.5,1
	L18.5,1z"/>
<path class="st0" d="M13,18.8c3.2,0,5.8-2.6,5.8-5.8c0-3.2-2.6-5.8-5.8-5.8c-3.2,0-5.8,2.6-5.8,5.8C7.2,16.2,9.8,18.8,13,18.8z"/>
<path class="st1" d="M20,7.2c0.7,0,1.2-0.6,1.2-1.2c0-0.7-0.6-1.2-1.2-1.2c-0.7,0-1.2,0.6-1.2,1.2C18.8,6.7,19.3,7.2,20,7.2z"/>
</svg>
