<?xml version="1.0" encoding="utf-8"?>
<!-- Generator: Adobe Illustrator 25.2.1, SVG Export Plug-In . SVG Version: 6.00 Build 0)  -->
<svg version="1.1" xmlns="http://www.w3.org/2000/svg" xmlns:xlink="http://www.w3.org/1999/xlink" x="0px" y="0px"
	 viewBox="0 0 667 429.8" enable-background="new 0 0 667 429.8" xml:space="preserve">
<g id="Слой_1">
	<g>
		<path fill="#FFFFFF" d="M265.9,154.2c7.7,3.5,13.7,8.4,17.9,14.9c4.2,6.5,6.3,14,6.3,22.8c0,8.7-2.1,16.3-6.3,22.7
			c-4.2,6.4-10.2,11.3-17.9,14.8c-7.7,3.5-16.8,5.2-27.3,5.2h-20.2v30.3h-32.8V149h53C249.1,149,258.2,150.7,265.9,154.2z
			 M251.8,204.3c3.4-2.9,5.1-7.1,5.1-12.5c0-5.4-1.7-9.6-5.1-12.6c-3.4-3-8.5-4.5-15.2-4.5h-18.2v33.9h18.2
			C243.3,208.7,248.4,207.3,251.8,204.3z"/>
		<path fill="#FFFFFF" d="M379,242.3h-49l-9.1,22.5h-33.4L338.6,149h32.3l51.3,115.9h-34.1L379,242.3z M369.4,218.2l-14.9-37.1
			l-14.9,37.1H369.4z"/>
		<path fill="#FFFFFF" d="M482.3,220.5h-14.9v44.4h-32.6V149h32.6v45h15.7l27.6-45h34.4l-36.3,56l36.6,59.9h-36.9L482.3,220.5z"/>
		<path fill="#FFFFFF" d="M556.1,149h32.3v68l47.8-68H667v115.9h-32.3V197l-47.7,67.9h-31V149z"/>
	</g>
	<g>
		<path fill="#FFFFFF" d="M250.9,281.2v70.9h-19.7v-17.8h-10.9l-11.6,17.8h-21.1l14.4-20.8c-4.7-2.1-8.3-5.1-10.8-9.1
			c-2.5-3.9-3.7-8.7-3.7-14.1c0-5.5,1.3-10.3,3.8-14.4c2.6-4,6.2-7.2,11-9.3c4.8-2.2,10.4-3.2,16.8-3.2H250.9z M207.6,307.9
			c0,3.6,1,6.3,3,8.1c2,1.9,4.9,2.8,8.7,2.8h11.9V297h-11.7C211.5,297,207.6,300.6,207.6,307.9z"/>
		<path fill="#FFFFFF" d="M294.7,325h-9.1v27.1h-19.9v-70.9h19.9v27.5h9.6l16.9-27.5h21.1L311,315.4l22.4,36.6h-22.6L294.7,325z"/>
		<path fill="#FFFFFF" d="M420.6,284.4c4.7,2.1,8.4,5.2,10.9,9.1c2.6,3.9,3.8,8.6,3.8,13.9c0,5.3-1.3,10-3.8,13.9
			c-2.6,3.9-6.2,6.9-10.9,9.1c-4.7,2.1-10.3,3.2-16.7,3.2h-12.4v18.5h-20v-70.9h32.4C410.3,281.2,415.8,282.3,420.6,284.4z
			 M412,315.1c2.1-1.8,3.1-4.3,3.1-7.6c0-3.3-1-5.9-3.1-7.7c-2.1-1.8-5.2-2.7-9.3-2.7h-11.1v20.8h11.1
			C406.8,317.8,409.9,316.9,412,315.1z"/>
		<path fill="#FFFFFF" d="M489.7,338.3h-30l-5.6,13.8h-20.5l31.3-70.9h19.7l31.4,70.9h-20.9L489.7,338.3z M483.8,323.5l-9.1-22.7
			l-9.1,22.7H483.8z"/>
		<path fill="#FFFFFF" d="M552.9,325h-9.1v27.1h-19.9v-70.9h19.9v27.5h9.6l16.9-27.5h21.1l-22.2,34.2l22.4,36.6H569L552.9,325z"/>
		<path fill="#FFFFFF" d="M598,281.2h19.7v41.6l29.3-41.6h18.8v70.9h-19.7v-41.5L617,352.1H598V281.2z"/>
	</g>
</g>
<g id="Слой_2">
	<path fill="#6B1721" d="M90.1,143c0.3-1.3,0.6-3,0.9-4.5c0.3-1.6,0.5-3.1,0.8-4.7c0.5-3.2,0.9-6.3,1.2-9.5
		c0.7-6.4,1.1-12.8,1.2-19.3c0.2-12.9-0.8-25.8-3.4-38.5c-2.6-12.6-6.8-25-13.1-36.4l-2.4-4.2l-2.7-4.1c-0.9-1.4-1.9-2.7-2.9-4
		c-1-1.3-1.9-2.7-3-3.9l-3.2-3.7c-1.1-1.2-2.3-2.3-3.4-3.5l-1.7-1.8c-0.6-0.6-1.2-1.1-1.8-1.6L52.8,0l4,2.9c0.7,0.5,1.3,1,2,1.5
		L60.7,6c1.3,1.1,2.6,2.1,3.8,3.2l3.6,3.5c1.2,1.1,2.3,2.4,3.4,3.7c1.1,1.3,2.3,2.5,3.3,3.8l3.1,3.9l2.9,4.1
		c7.5,11.1,13,23.6,16.9,36.5c3.8,13,6.1,26.4,7.1,39.9c0.5,6.8,0.7,13.5,0.6,20.3c-0.1,3.4-0.2,6.8-0.4,10.2
		c-0.1,1.7-0.2,3.4-0.4,5.1c-0.2,1.7-0.3,3.4-0.6,5.3L90.1,143z"/>
	<path fill="#6B1721" d="M112.5,145.6c-0.3-1.9-0.4-3.5-0.6-5.3c-0.2-1.7-0.3-3.4-0.4-5.1c-0.2-3.4-0.3-6.8-0.4-10.2
		c-0.1-6.8,0.1-13.6,0.6-20.3c1-13.5,3.3-26.9,7.1-39.9c3.9-12.9,9.4-25.4,16.9-36.5l2.9-4.1l3.1-3.9c1-1.3,2.2-2.5,3.3-3.8
		c1.1-1.2,2.2-2.5,3.4-3.7l3.6-3.5c1.2-1.1,2.5-2.2,3.8-3.2l1.9-1.6c0.7-0.5,1.3-1,2-1.5l4-2.9l-3.7,3.3c-0.6,0.5-1.2,1.1-1.8,1.6
		l-1.7,1.8c-1.1,1.2-2.3,2.3-3.4,3.5l-3.2,3.7c-1.1,1.2-2,2.6-3,3.9c-1,1.3-2,2.6-2.9,4l-2.7,4.1l-2.4,4.2
		c-6.3,11.4-10.5,23.8-13.1,36.4c-2.5,12.7-3.6,25.6-3.4,38.5c0.1,6.4,0.5,12.9,1.2,19.3c0.4,3.2,0.7,6.4,1.2,9.5
		c0.2,1.6,0.5,3.1,0.8,4.7c0.3,1.5,0.6,3.2,0.9,4.5L112.5,145.6z"/>
	<path fill="#C1272D" d="M6.4,159.3c0,0,8.9,49.1,50.5,66.8s10-9.4,10-9.4s-27.2-23.1-13.9-47.2s-37.6-24.1-37.6-24.1L6.4,159.3z"/>
	<path fill="#6B1721" d="M49.4,182.8c0,0-6.8,26,7.5,43.4l5.4-14.9C62.3,211.2,49.4,199.7,49.4,182.8z"/>
	<g>
		<path fill="#6B1721" d="M88.8,219.5c-0.2-0.7-0.4-1.1-0.4-1.1s-0.6-0.3-1.7-0.9C87.5,218.2,88.2,218.9,88.8,219.5z"/>
		<path fill="#6B1721" d="M58.6,221.5C25.9,197,25.2,154.1,25.3,146c-5.7-0.6-9.9-0.6-9.9-0.6l-9.1,13.9c0,0,8.9,49.1,50.5,66.8
			c8.5,3.6,14.9,5.5,19.6,6.1C72.1,230.5,66.2,227.2,58.6,221.5z"/>
		<path fill="#C1272D" d="M208.6,153.7c0,0-8.9,49.1-50.5,66.8s-10-9.4-10-9.4s27.2-23.1,13.9-47.2c-13.3-24.1,37.6-24.1,37.6-24.1
			L208.6,153.7z"/>
		<path fill="#6B1721" d="M165.6,177.1c0,0,6.8,26-7.5,43.4l-5.4-14.9C152.7,205.5,165.6,194.1,165.6,177.1z"/>
		<path fill="#6B1721" d="M156.4,215.9c32.8-24.5,33.5-67.5,33.3-75.5c5.7-0.6,9.9-0.6,9.9-0.6l9.1,13.9c0,0-8.9,49.1-50.5,66.8
			c-8.5,3.6-14.9,5.5-19.6,6.1C143,224.8,148.8,221.6,156.4,215.9z"/>
	</g>
	<path fill="#C1272D" d="M139.7,123.2c11.5,40.9,34.5,57.9,55.6,51.9c21.1-5.9,32.3-32.5,20.7-73.4c-11.5-40.9-58.8-63.4-59-63.3
		C156.8,38.4,128.1,82.3,139.7,123.2z"/>
	<path fill="#6B1721" d="M188.4,168.8c21.1-5.9,32.3-32.5,20.7-73.4c-4.9-17.2-16-31.2-27.4-41.6c13.5,10.7,28.8,26.8,34.7,47.7
		c11.5,40.9,0.3,67.5-20.7,73.4c-11.6,3.3-23.9-0.4-34.4-11.3C170,169.7,179.4,171.4,188.4,168.8z"/>
	<path fill="#C1272D" d="M156.9,38.5c8.9,8.7,14.9,27.3,14.5,47.7c-0.6,26.6-11.9,46-25.3,43.5c-1.8-0.3-3.5-1-5.1-2.1
		c-0.5-1.5-0.9-2.9-1.3-4.5C128.5,83.4,155.2,40.8,156.9,38.5z"/>
	<path fill="#C1272D" d="M81.4,123.2c-11.5,40.9-34.5,57.9-55.6,51.9C4.7,169.2-6.5,142.6,5,101.7s58.8-63.4,59-63.3
		C64.3,38.4,92.9,82.3,81.4,123.2z"/>
	<path fill="#6B1721" d="M32.6,168.8c-21.1-5.9-32.3-32.5-20.7-73.4c4.9-17.2,16-31.2,27.4-41.6C25.8,64.5,10.5,80.6,4.6,101.6
		c-11.5,40.9-0.3,67.5,20.7,73.4c11.6,3.3,23.9-0.4,34.4-11.3C51.1,169.7,41.7,171.4,32.6,168.8z"/>
	<path fill="#C1272D" d="M64.2,38.5c-8.9,8.7-14.9,27.3-14.5,47.7c0.6,26.6,11.9,46,25.3,43.5c1.8-0.3,3.5-1,5.1-2.1
		c0.5-1.5,0.9-2.9,1.3-4.5C92.6,83.4,65.9,40.8,64.2,38.5z"/>
	<path fill="#6B1721" d="M55,87.7c0.3-18.1,5.1-34.9,11.9-44.7c-1.5-2.6-2.5-4.2-2.8-4.6c-8.9,8.7-14.9,27.3-14.5,47.7
		c0.5,23.2,9.2,41.1,20.4,43.4C61.1,126.5,54.7,109.7,55,87.7z"/>
	<path fill="#6B1721" d="M166,87.7c-0.3-18.1-5.1-34.9-11.9-44.7c1.5-2.6,2.5-4.2,2.8-4.6c8.9,8.7,14.9,27.3,14.5,47.7
		c-0.5,23.2-9.2,41.1-20.4,43.4C159.9,126.5,166.3,109.7,166,87.7z"/>
	<path fill="#C1272D" d="M68,376.7c-9.8,17.7-5.5,27.8,3.7,33s20.5,2.7,30.3-15s10.3-46.3,5.2-49.2C101.8,342.5,77.8,359,68,376.7z"
		/>
	<path fill="#6B1721" d="M75.1,403.7c8.7,4.8,19.1,3,28.4-11.8c-0.5,1-0.9,1.9-1.4,2.8c-9.8,17.7-21,20.1-30.3,15
		c-9.3-5.1-13.5-15.2-3.7-33c0.5-0.9,1-1.8,1.6-2.7C62.1,389.7,66.4,398.9,75.1,403.7z"/>
	<path fill="#C1272D" d="M148.7,376.6c9.8,17.7,5.5,27.8-3.7,33c-9.3,5.1-20.5,2.7-30.3-15s-10.3-46.3-5.2-49.2
		C114.9,342.4,138.9,358.9,148.7,376.6z"/>
	<path fill="#6B1721" d="M141.6,403.6c-8.7,4.8-19.1,3-28.4-11.8c0.5,1,0.9,1.9,1.4,2.8c9.8,17.7,21,20.1,30.3,15
		c9.3-5.1,13.5-15.2,3.7-33c-0.5-0.9-1-1.8-1.6-2.7C154.6,389.6,150.3,398.8,141.6,403.6z"/>
	<path fill="#C1272D" d="M127.6,402.7c0,20.2-8.6,27-19.2,27s-19.2-7.5-19.2-27.8c0-20.2,13.4-45.5,19.2-45.5
		C114.5,356.5,127.6,382.5,127.6,402.7z"/>
	<path fill="#6B1721" d="M108.3,422.9c-9.9,0-18.1-6.6-19.1-24.1c-0.1,1.1-0.1,2.1-0.1,3.1c0,20.2,8.6,27.8,19.2,27.8
		s19.2-6.8,19.2-27c0-1,0-2.1-0.1-3.2C126.5,417,118.3,422.9,108.3,422.9z"/>
	<path fill="#C1272D" d="M146.7,343c0,40.4-17.2,54-38.4,54s-38.4-15-38.4-55.5s26.7-91,38.4-91C120.7,250.5,146.7,302.5,146.7,343z
		"/>
	<path fill="#6B1721" d="M108.3,383.3c-19.9,0-36.2-13.2-38.2-48.1c-0.1,2.1-0.2,4.2-0.2,6.2c0,40.4,17.2,55.5,38.4,55.5
		s38.4-13.5,38.4-54c0-2.1-0.1-4.2-0.2-6.3C144.5,371.4,128.2,383.3,108.3,383.3z"/>
	<path fill="#C1272D" d="M154.7,297.9c0,48.6-20.7,64.9-46.2,64.9s-46.2-18.1-46.2-66.7s32.1-109.4,46.2-109.4
		C123.4,186.7,154.7,249.3,154.7,297.9z"/>
	<path fill="#6B1721" d="M108.5,346.4c-23.9,0-43.6-15.9-46-57.8c-0.2,2.5-0.2,5-0.2,7.5c0,48.6,20.7,66.7,46.2,66.7
		s46.2-16.3,46.2-64.9c0-2.5-0.1-5-0.2-7.6C152.1,332.1,132.4,346.4,108.5,346.4z"/>
	<path fill="#C1272D" d="M162,251.5c0,56.3-23.9,75.2-53.5,75.2s-53.5-20.9-53.5-77.2s37.2-126.6,53.5-126.6
		C125.8,122.8,162,195.2,162,251.5z"/>
	<path fill="#6B1721" d="M108.5,296.7c-26.6,0-48.6-16.9-52.8-61.3c-0.5,4.7-0.7,9.4-0.7,14c0,56.3,23.9,77.2,53.5,77.2
		s53.5-18.9,53.5-75.2c0-4.6-0.2-9.4-0.7-14.2C157.2,281.4,135.1,296.7,108.5,296.7z"/>
</g>
</svg>
